<?xml version="1.0" encoding="utf-8"?>
<!-- Generator: Adobe Illustrator 24.0.2, SVG Export Plug-In . SVG Version: 6.00 Build 0)  -->
<svg version="1.1" id="Layer_1" xmlns="http://www.w3.org/2000/svg" xmlns:xlink="http://www.w3.org/1999/xlink" x="0px" y="0px"
	 viewBox="0 0 512 512" style="enable-background:new 0 0 512 512;" xml:space="preserve">
<style type="text/css">
	.st0{fill:#FFFFFF;}
	.st1{fill:#CE8B5A;}
	.st2{fill:#196C72;}
	.st3{fill:#EFAF85;}
	.st4{fill:url(#SVGID_1_);}
	.st5{fill:#393E49;}
	.st6{fill:#D5C0BF;}
	.st7{fill:#202B53;}
	.st8{fill:none;stroke:#202B53;stroke-width:3.4388;stroke-linecap:round;stroke-linejoin:round;stroke-miterlimit:10;}
	.st9{fill:#ECD3D3;}
	.st10{opacity:0.5;fill:#D3ECFB;}
	.st11{fill:none;stroke:#E19C7B;stroke-width:1.4705;stroke-miterlimit:10;}
	.st12{fill:#CE2521;}
</style>
<polygon class="st0" points="336.5105,335.4428 296.9186,322.655 304.1644,296.622 344.7441,306.9171 "/>
<g>
	<path class="st1" d="M402.7466,224.2883c2.188-4.6653,0.0557-24.8967-3.3079-34.6604
		c-3.3641-9.7396-15.6582-19.7378-18.8676-27.6744c-3.2092-7.9372,3.5765-15.4547,9.7827-8.4061
		c11.4296,12.973,25.1003,26.0697,28.4948,35.13c1.7961,4.8013,3.5986,23.1315,4.9592,40.4994
		C425.2058,247.0375,400.5618,228.9423,402.7466,224.2883z"/>
	<path class="st1" d="M398.5963,224.5354c1.5642-4.2338-1.8056-21.7868-5.4901-30.0817
		c-3.6725-8.2703-15.1856-16.0956-18.5832-22.8106c-3.3943-6.7028,1.9807-13.8001,7.931-8.0976
		c10.9821,10.5043,23.9279,20.9348,27.5815,28.6128c1.9289,4.0606,4.8696,19.9964,7.3627,35.0928
		C419.9533,242.7672,397.0379,228.7938,398.5963,224.5354z"/>
	<path class="st1" d="M397.0625,239.0144c1.4871-3.7276-1.142-19.4534-4.24-26.8964c-3.0923-7.4683-13.1739-14.6895-16.0558-20.7249
		c-2.8794-6.0489,2.0579-12.2449,7.242-7.0487c9.5545,9.6038,20.852,19.1697,23.9374,26.0945
		c1.6325,3.6541,3.9038,17.8987,5.7922,31.4025C415.683,255.7154,395.5748,242.7672,397.0625,239.0144z"/>
</g>
<path class="st2" d="M292.7645,507.5999c-21.5421-78.8021-60.1286-104.6867-60.1286-104.6867L183.7152,362.92
	c-0.17-0.0493-59.9314-6.7888-59.9314-6.7888s-61.3141,87.6026-69.1465,151.4688H292.7645z"/>
<polygon class="st3" points="123.7838,356.1312 222.0298,394.248 251.6602,321.2722 172.2691,265.7629 142.5952,322.655 "/>
<path class="st3" d="M142.3391,133.106c33.5191-74.7161,80.1319-82.5295,143.464-73.5805
	c71.639,10.134,95.4961,45.8815,99.5852,85.0354c1.6014,15.4421-6.1809,42.1167-11.6433,57.6822
	c-5.0578,14.405-9.313,21.1938-10.359,26.3408c-2.7037,13.3187,3.0702,37.5866,11.5439,42.6104
	c2.7531,1.6293,2.8301,9.1589,1.7898,10.3564c-2.7928,3.1846-9.1961,3.3572-14.5712,8.3442
	c-9.1842,8.554-9.3074,17.7256-15.4049,21.4038c-5.4472,3.2712-33.4641-14.084-38.5124,0.9012
	c-4.0024,11.8746,28.3505,17.6636,31.2419,19.6386c6.0665,4.1599-10.8627,22.2804-18.8859,33.3649
	c-7.4094,10.2079-42.9989,11.5041-63.1008-0.6294c-43.6379-26.3783-116.2337-61.1379-122.5752-106.5751
	C128.5819,212.5497,133.7972,150.1403,142.3391,133.106z"/>
<linearGradient id="SVGID_1_" gradientUnits="userSpaceOnUse" x1="759.8624" y1="-272.0718" x2="723.4703" y2="-402.5034" gradientTransform="matrix(0.9879 0.1552 -0.1552 0.9879 -526.6485 393.5376)">
	<stop  offset="0.2032" style="stop-color:#EFAF85"/>
	<stop  offset="0.3389" style="stop-color:#EDA37F"/>
	<stop  offset="0.5822" style="stop-color:#E9846F"/>
	<stop  offset="0.6898" style="stop-color:#E77467"/>
</linearGradient>
<path class="st4" d="M369.323,213.6608c1.3486-3.1973,2.8421-6.9002,4.422-11.4176c5.4624-15.5655,13.2448-42.2401,11.6433-57.6822
	c-4.0891-39.1539-27.9462-74.9014-99.5852-85.0354c-63.3321-8.949-109.9449-1.1357-143.464,73.5805
	c-3.7584,7.505-7.4405,68.3591-9.2144,88.1089L369.323,213.6608z"/>
<path class="st5" d="M101.1389,166.5203c11.9737-66.1862,53.8402-126.0039,107.547-138.3473
	C312.1566,4.35,378.1146,93.3594,401.75,119.6269c16.2036,18.034,10.2541,49.6711-17.747,33.7473
	c-97.274-55.3734-135.5179-8.9858-135.5179-8.9858s-13.155,38.0303-15.42,56.6445c-2.2777,18.6147-14.3001,38.1547-18.1792,34.0809
	c-1.5276-45.1035-15.9699-42.0175-11.8101-57.7554c0.8241-3.0987-2.7802,27.4892-12.2569,69.6299
	c-3.148,20.0463-38.7527,70.2847-48.2237,75.6668C132.8005,295.2643,93.5599,208.3532,101.1389,166.5203z"/>
<path class="st6" d="M351.3017,282.2542c0,0,4.0978,4.7892,12.698,6.1347c2.8517-2.9008,16.516-6.4678,11.1124-8.1463
	C372.7762,279.5265,351.3017,282.2542,351.3017,282.2542z"/>
<g>
	<path class="st7" d="M361.6512,191.2691c-1.4005-3.9866-33.1456-7.443-38.4164-7.2825
		c-10.6553,0.3085-25.2854,13.0842-23.8691,15.5653c1.4163,2.456,16.1083-5.6538,27.4615-2.9994
		c4.3973,1.0364,26.1715,8.2083,29.2973,7.3691C359.2509,203.0824,363.0555,195.2437,361.6512,191.2691z"/>
	<path class="st8" d="M334.2145,216.8946c-9.6651-9.0969-30.2757-2.8016-30.2757-2.8016s19.0894,0.0493,29.1248,10.1461"/>
</g>
<path class="st9" d="M235.7061,351.8475c0,0-26.3535-18.0213-32.7847-26.7605c-6.4312-8.7399-6.7579-45.6224-6.7579-45.6224
	l13.2567,39.6722L235.7061,351.8475z"/>
<path class="st3" d="M213.2932,216.3025c-3.6814,20.1322-4.9959,35.4504-19.6506,30.9202
	c-14.6521-4.5301-28.8784-21.7613-26.1873-42.0421c2.9653-22.3423,17.0095-29.8838,29.6652-29.2917
	C207.0566,176.3705,217.4005,193.8862,213.2932,216.3025z"/>
<g>
	<path class="st10" d="M271.0802,217.8331c-0.6667,4.2458-3.8419,7.2699-7.0948,6.7642c-3.2523-0.5188-5.3448-4.3696-4.6843-8.604
		c0.6667-4.2584,9.5172-22.1691,9.5172-22.1691S271.7469,213.5867,271.0802,217.8331z"/>
	<g>
		<g>
			<path class="st0" d="M268.8182,193.8243c0,0-1.5863,3.1972-3.7338,7.9865c-1.065,2.4072-2.1666,5.2582-3.1846,8.3195
				c-0.9663,3.0368-1.6356,6.4925-1.13,9.5293c0.3273,1.4933,1.1237,2.9009,2.2101,3.5183c1.0921,0.654,2.6044,0.5549,3.9524,0.0366
				c1.324-0.4689,2.5616-1.592,2.9723-2.7403c0.5676-1.2589,0.7957-2.6537,0.9499-3.9253c0.2781-2.5798,0.124-4.8013-0.0056-6.3199
				c-0.1112-1.5426-0.2503-2.4193-0.2503-2.4193s1.2564,3.3578,1.3639,8.8011c0.0157,1.3575-0.1106,2.8636-0.682,4.4316
				c-0.6136,1.7405-1.8574,2.9868-3.5328,3.9126c-1.5831,0.8766-3.8671,1.3329-5.8725,0.2345
				c-0.9631-0.5183-1.7405-1.3329-2.3396-2.2341c-0.4474-0.6541-0.9752-1.8517-1.185-2.7403
				c-0.9164-3.9746,0.2718-7.6528,1.3335-10.8375c1.1047-3.2219,2.6411-5.9749,3.993-8.2829
				C266.411,196.478,268.8182,193.8243,268.8182,193.8243z"/>
		</g>
	</g>
</g>
<path class="st3" d="M318.7546,433.9327c0,0,73.9692,20.5152,95.1196,16.9849c-1.7867-49.3992-11.1276-172.3542-11.1276-172.3542
	s-22.1754-15.4541-25.298-26.0204c-3.1322-10.5783-9.2088-22.7493-9.3719-27.8963c-0.158-5.135,2.1014-22.2557,1.4529-26.0085
	c-1.5243-8.8997,13.1588-3.9993,14.6952,6.5424c1.5432,10.5537,1.3701,21.1446,4.4965,24.3912
	c3.1227,3.2213,17.6112,0.2099,19.8883-4.4069c2.2777-4.6167,0.5619-24.8848-2.6076-34.6977
	c-3.1688-9.8382-16.4508-19.9229-19.4931-27.9335c-3.0431-7.9992-0.3458-22.6754,10.4456-9.1595
	c10.7881,13.5291,25.2639,27.3785,28.4738,36.5128c3.4558,9.7883,5.7644,75.2958,5.7644,75.2958s41.7648,185.7348,41.7648,209.9408
	c0,17.6516-38.5214,32.4763-38.5214,32.4763H292.7645L318.7546,433.9327z"/>
<path class="st11" d="M368.0767,224.6467c-0.158-5.135,2.1014-22.2557,1.4529-26.0085c-1.5243-8.8997,13.1588-3.9993,14.6952,6.5424
	c1.5432,10.5537,1.3701,21.1446,4.4965,24.3912c3.1227,3.2213,17.6112,0.2099,19.8883-4.4069
	c2.2777-4.6167,0.5619-24.8848-2.6076-34.6977c-3.1688-9.8382-16.4508-19.9229-19.4931-27.9335"/>
<polygon class="st2" points="334.2145,507.5999 163.8971,507.5999 222.0298,394.248 356.2173,440.1414 "/>
<polygon class="st12" points="309.8423,105.6662 344.5216,64.9323 320.5873,25.7904 348.1753,3.3622 300.4641,25.6917 
	325.6111,57.3041 "/>
<polygon class="st12" points="320.7169,109.764 365.5026,104.8888 372.0759,60.3649 402.1419,63.5994 359.3186,46.3056 
	357.7139,86.2994 "/>
<g>
	<g>
		<g>
			<path class="st0" d="M251.8271,153.7199c0,0,1.913-0.3211,4.5642-0.9505c2.6784-0.6048,5.925-1.9377,8.5326-4.3323
				c1.3019-1.1977,2.7769-2.3453,3.6688-3.5923c0.8979-1.2589,1.506-2.5305,1.6078-3.8261c0.1017-1.2596,0.0372-2.4198-0.0891-3.222
				c-0.1296-0.8146-0.2041-1.2836-0.2041-1.2836s0.29,0.3704,0.7159,1.1105c0.3521,0.7407,0.9967,1.8517,1.1205,3.3951
				c0.1789,1.5054-0.1017,3.5177-1.2469,5.135c-1.1016,1.6293-2.3978,3.0487-3.95,4.2337c-1.4997,1.271-3.3021,2.2341-5.0236,2.9256
				c-1.7898,0.5921-3.5152,0.7774-4.953,0.8393C253.6599,154.1642,251.8271,153.7199,251.8271,153.7199z"/>
		</g>
	</g>
	<g>
		<g>
			<path class="st0" d="M252.9811,157.8303c0,0,0.4689-0.1358,1.2867-0.3577c0.7868-0.2099,2.0774-0.395,3.574-0.3337
				c1.4902,0.0746,3.2617,0.3584,5.0389,1.0497c1.7531,0.7401,3.5303,1.7898,5.0609,3.1473
				c0.8304,0.6668,1.4751,1.3702,2.0958,2.2221c0.5985,0.8146,1.1167,1.6413,1.5705,2.4806
				c0.9474,1.6546,1.3734,3.4444,1.549,4.9624c0.2161,1.5306-0.1232,2.827-0.4134,3.6415c-0.3027,0.8267-0.6667,1.197-0.6325,1.2097
				c0,0,0.4538-1.9877-0.4538-4.5428c-0.8855-2.5179-2.7523-5.7764-5.4187-8.085c-1.2652-1.259-2.7682-2.2708-4.2742-3.0115
				c-1.4751-0.8146-2.9779-1.3948-4.3234-1.6912c-1.3298-0.3085-2.4623-0.5802-3.3295-0.5802
				C253.4659,157.8676,252.9811,157.8303,252.9811,157.8303z"/>
		</g>
	</g>
	<g>
		<g>
			<path class="st0" d="M277.4526,137.6855c0,0-1.0213,1.7778-1.0984,4.5055c-0.108,2.6784,0.6725,6.4186,2.8049,9.0976
				c0.9782,1.3575,2.3978,2.2214,3.9777,2.7895c1.5401,0.5802,3.1075,0.9253,4.4562,0.876
				c2.7491,0.0992,4.3696-1.2343,4.3696-1.2343c0.0373-0.0986-1.0245,1.9997-4.2123,2.6537
				c-1.5212,0.2965-3.3792,0.3458-5.2892-0.1598c-1.8486-0.5062-3.9284-1.6173-5.3201-3.3332
				c-2.626-3.481-3.1264-7.9372-2.2619-10.924c0.3578-1.5061,1.077-2.6045,1.6293-3.3078
				C277.0544,137.982,277.4526,137.6855,277.4526,137.6855z"/>
		</g>
	</g>
	<g>
		<path class="st0" d="M277.1131,173.4084c0,0-0.5308-1.3089-1.0155-3.2959c-0.0708-1.0244-0.1909-2.3579-0.0278-3.7402
			c0.1946-0.6667,0.395-1.3581,0.5991-2.0616c0.136-0.7281,0.6383-1.3455,1.0031-2.0123c0.3981-0.6661,0.9037-1.2343,1.5332-1.6786
			c0.6023-0.4443,1.1079-1.0244,1.7961-1.2463c1.2653-0.7041,2.5734-0.8646,3.6599-0.9138
			c1.0737-0.2099,1.9686,0.2471,2.5614,0.2964c0.5954,0.1358,0.9196,0.2472,0.9196,0.2472s-0.3394,0.0859-0.9322,0.259
			c-0.5739,0.1605-1.4037,0.2344-2.2834,0.6414c-0.4348,0.1605-0.9101,0.3458-1.4099,0.5309
			c-0.4476,0.2964-0.8766,0.6422-1.3702,0.8886c-0.5308,0.1977-0.8551,0.7041-1.2811,1.0743
			c-0.4563,0.3577-0.79,0.8267-1.0428,1.3702c-0.3083,0.4809-0.7716,0.8886-0.9132,1.4807
			c-0.2193,0.5555-0.4323,1.099-0.6389,1.6299c-0.2004,1.0984-0.5619,2.1349-0.7161,3.1101
			C277.4121,172.0255,277.1131,173.4084,277.1131,173.4084z"/>
	</g>
</g>
</svg>
