<?xml version="1.0" encoding="utf-8"?>
<!-- Generator: Adobe Illustrator 24.0.2, SVG Export Plug-In . SVG Version: 6.00 Build 0)  -->
<svg version="1.1" id="Layer_1" xmlns="http://www.w3.org/2000/svg" xmlns:xlink="http://www.w3.org/1999/xlink" x="0px" y="0px"
	 viewBox="0 0 512 512" style="enable-background:new 0 0 512 512;" xml:space="preserve">
<style type="text/css">
	.st0{fill:#196C72;}
	.st1{fill:#EFAF85;}
	.st2{fill:url(#SVGID_1_);}
	.st3{fill:url(#SVGID_2_);}
	.st4{fill:#393E49;}
	.st5{fill:#D5C0BF;}
	.st6{fill:#202B53;}
	.st7{fill:none;stroke:#202B53;stroke-width:3.4388;stroke-linecap:round;stroke-miterlimit:10;}
	.st8{fill:none;stroke:#D5C0BF;stroke-width:3.4388;stroke-miterlimit:10;}
	.st9{opacity:0.5;fill:#D3ECFB;}
	.st10{fill:#FFFFFF;}
</style>
<path class="st0" d="M332.236,506.0109c-21.6021-78.9957-60.28-104.9439-60.28-104.9439l-49.041-40.0915
	c-0.1666-0.0494-60.0754,0-60.0754,0s-61.4674,81.0123-69.3126,145.0354H332.236z"/>
<polygon class="st1" points="162.8396,360.9755 271.956,401.067 282.9968,299.8358 195.7422,257.2196 175.2077,318.1738 "/>
<linearGradient id="SVGID_1_" gradientUnits="userSpaceOnUse" x1="195.7875" y1="315.4534" x2="297.6775" y2="354.7094">
	<stop  offset="0.3529" style="stop-color:#EFAF85"/>
	<stop  offset="0.505" style="stop-color:#EDA37F"/>
	<stop  offset="0.7778" style="stop-color:#E9846F"/>
	<stop  offset="0.8984" style="stop-color:#E77467"/>
</linearGradient>
<polygon class="st2" points="162.8396,360.9755 271.956,401.067 282.9968,299.8358 195.7422,257.2196 175.2077,318.1738 "/>
<path class="st1" d="M145.4633,130.4982c21.571-79.2061,66.5136-94.2155,130.6292-95.193
	c72.5265-1.1012,101.714,30.5762,111.8483,68.7247c3.9906,15.0347,0.4326,42.6782-2.5526,58.9496
	c-2.7687,15.0347-5.93,22.4218-6.165,27.693c-0.6063,13.6238,8.8842,36.7387,18.0629,40.4012
	c2.9854,1.188,4.2227,8.6371,3.3813,9.9607c-2.2737,3.5764-8.5877,4.7643-13.1289,10.5308
	c-7.768,9.9113-3.7119,20.1195-11.6935,35.2283c-6.255,11.8296-9.4506,29.5366-17.7532,45.8086
	c-5.7481,11.2847-40.794,18.103-62.588,9.2061c-8.6613-3.539-44.1963-22.7684-60.1838-30.6256
	c-28.6022-14.0565-70.7882-32.7911-77.7824-55.856C144.2044,211.3248,139.66,148.7,145.4633,130.4982z"/>
<linearGradient id="SVGID_2_" gradientUnits="userSpaceOnUse" x1="285.218" y1="219.741" x2="248.7341" y2="88.9805">
	<stop  offset="0.2032" style="stop-color:#EFAF85"/>
	<stop  offset="0.3389" style="stop-color:#EDA37F"/>
	<stop  offset="0.5822" style="stop-color:#E9846F"/>
	<stop  offset="0.6898" style="stop-color:#E77467"/>
</linearGradient>
<path class="st3" d="M382.7773,174.958c0.8413-3.3782,1.748-7.2637,2.6109-11.9785c2.9852-16.2714,6.5432-43.9149,2.5526-58.9496
	c-10.1343-38.1485-39.3218-69.8258-111.8483-68.7247c-64.1156,0.9775-109.0582,15.9869-130.6292,95.193
	c-2.5518,8.0054,3.2673,68.8361,4.5818,88.6838L382.7773,174.958z"/>
<path class="st4" d="M109.8574,169.996c1.5654-67.4011,33.7256-133.1563,84.9878-153.7466
	c98.7655-39.6587,177.9247,38.1984,205.4263,60.5456c18.8455,15.3312,17.8742,47.6028-12.3307,36.1692
	c-104.9439-39.7082-135.6,12.1881-135.6,12.1881s-7.1154,39.7082-6.4628,58.5043c0.6437,18.7834-8.2222,40.0173-12.6988,36.5898
	c-8.5313-44.4471-22.3566-39.1513-20.6859-55.386c0.337-3.1923,1.5249,27.6683-1.3026,70.8908
	c0,20.3298-27.4452,75.6049-35.9829,82.4225C161.2437,292.5721,108.8677,212.6115,109.8574,169.996z"/>
<path class="st5" d="M375.6068,245.6998c0,0,4.8009,4.0959,13.5338,4.0959c2.3637-3.3286,15.3438-8.9716,9.7325-9.7882
	C396.4447,239.6608,375.6068,245.6998,375.6068,245.6998z"/>
<g>
	<path class="st6" d="M371.7029,153.9837c-2.0045-3.7246-33.9854-2.2148-39.1791-1.2373
		c-10.5023,1.9551-23.0003,16.8905-21.215,19.1179c1.7816,2.215,15.0715-8.0929,26.7274-7.2389
		c4.5102,0.3467,27.195,4.0586,30.1588,2.7471C371.1612,166.0484,373.7106,157.7084,371.7029,153.9837z"/>
	<path class="st7" d="M332.236,187.8019c6.7625,15.1582,18.2519,11.0997,24.2313,2.7964"/>
</g>
<path class="st1" d="M228.6721,201.8583c-0.5195,20.5041,0.5695,35.8847-14.6445,33.6699
	c-15.2197-2.2029-31.9833-17.0513-32.4756-37.5548c-0.5441-22.5828,12.1945-32.2589,24.8193-33.6205
	C216.2887,163.2766,229.2536,179.0038,228.6721,201.8583z"/>
<path class="st8" d="M374.6666,289.1693c-6.623-5.4567-7.9536,3.8482-15.0435-4.4544c-7.9472-9.3176-17.5898-6.8803-22.0911-4.0592"
	/>
<g>
	<path class="st9" d="M276.1324,157.4734c0,3.9349-2.4373,7.1147-5.4416,7.1147c-3.0036,0-5.4409-3.1798-5.4409-7.1147
		c0-3.9103,5.4409-21.3081,5.4409-21.3081S276.1324,153.5631,276.1324,157.4734z"/>
	<g>
		<g>
			<path class="st10" d="M270.6908,136.1653c0,0-0.9776,3.1056-2.2332,7.7337c-0.6216,2.3137-1.2095,5.0359-1.6955,7.9319
				c-0.439,2.8826-0.5536,6.0878,0.3282,8.7607c0.5075,1.2995,1.4198,2.45,2.4873,2.858c1.0796,0.4334,2.4252,0.1363,3.5663-0.5315
				c1.1295-0.6063,2.0824-1.7822,2.2986-2.8833c0.3345-1.2125,0.3433-2.4993,0.3035-3.6751
				c-0.1115-2.3631-0.5696-4.3309-0.8972-5.6919c-0.3219-1.3735-0.5695-2.1407-0.5695-2.1407s1.6092,2.8459,2.4752,7.7337
				c0.204,1.2247,0.3029,2.5982,0.0058,4.0959c-0.3123,1.6453-1.2526,2.9574-2.6356,4.0212
				c-1.3051,1.0149-3.2977,1.7448-5.2585,1.0269c-1.9494-0.7299-3.1677-2.3257-3.8792-3.9844
				c-1.3861-3.4395-0.8356-6.929-0.3281-9.9485c0.541-3.0563,1.5344-5.7659,2.4283-8.0309
				C268.8966,138.8876,270.6908,136.1653,270.6908,136.1653z"/>
		</g>
	</g>
</g>
<g>
	<path class="st9" d="M292.7693,183.1123c0,3.9103-2.4347,7.1028-5.4415,7.1028c-3.0036,0-5.4416-3.1925-5.4416-7.1028
		c0-3.9349,5.4416-21.3327,5.4416-21.3327S292.7693,179.1774,292.7693,183.1123z"/>
	<g>
		<g>
			<path class="st10" d="M287.3277,161.7796c0,0-0.9775,3.1056-2.2332,7.7337c-0.619,2.3137-1.2069,5.0487-1.6953,7.944
				c-0.4391,2.8833-0.5538,6.0878,0.3338,8.748c0.5076,1.2994,1.4293,2.4626,2.4905,2.8712
				c1.0797,0.4328,2.4284,0.1363,3.5733-0.5321c1.1321-0.6063,2.0787-1.7822,2.289-2.8833
				c0.3281-1.2253,0.3401-2.5119,0.2971-3.6751c-0.1115-2.3631-0.5632-4.343-0.8939-5.7045
				c-0.3219-1.3735-0.5696-2.1407-0.5696-2.1407s1.6055,2.8466,2.4715,7.7343c0.2046,1.2247,0.3035,2.6109,0.0128,4.0953
				c-0.3029,1.6587-1.2437,2.9701-2.6293,4.0344c-1.3058,1.0143-3.3007,1.7442-5.2622,1.0269
				c-0.9402-0.3217-1.7568-0.9408-2.4221-1.6707c-0.498-0.5321-1.1417-1.5344-1.4603-2.3137
				c-1.3919-3.4401-0.8414-6.9296-0.3308-9.9491c0.5379-3.0683,1.5314-5.766,2.4253-8.043
				C285.5335,164.5139,287.3277,161.7796,287.3277,161.7796z"/>
		</g>
	</g>
</g>
<g>
	<path class="st1" d="M313.0256,506.0109l-19.0127-26.2206c0,0-26.4151-6.0263-33.3018-14.6755
		c-6.886-8.6498-26.9314-24.6861-29.3199-27.6436c-7.3688-9.132-3.2419-14.4524,7.6596-10.3198
		c3.6315,1.3736,10.9198,5.5435,15.0341,7.3624c4.1269,1.8437,9.8004-2.6602,9.7294-5.8773
		c-0.0432-2.0794-3.3534-5.7291-9.9923-13.6486c-6.6352-7.9439-18.9474-22.2609-27.1975-32.8778
		c-5.2655-6.7562,0.1914-9.2929,6.827-5.5435c11.3006,6.3601,30.4369,23.4736,36.8496,30.7371
		c6.8861,7.8078,45.1124,49.335,45.1124,49.335l36.2496,37.134L313.0256,506.0109z"/>
	<path class="st1" d="M260.7733,404.433c6.58,7.8572,7.5695,11.9779,7.6316,14.0692c1.0923-0.2104,2.1934-0.4206,3.3318-0.4954
		c4.8162-0.3213,9.6394-1.2494,14.4436-1.4724c1.8836-0.0868,3.7709-0.1483,5.6576-0.247
		c-0.9282-0.0748,1.9462-0.6437,1.4046-0.0622c0.1115-0.0126,0.2197,0,0.3281-0.0126c-0.1609,0.0126-0.1983,0.0126-0.3376,0.0126
		c-0.1667,0.173-0.5506,0.4207-1.5529,0.8541c0.7831-0.3345,1.5782-0.5696,2.3726-0.8421
		c-7.4118-8.6244-14.1863-16.519-16.8004-19.4765c-6.4095-7.2757-29.7748-23.8816-41.0754-30.2417
		c-6.6357-3.7494-12.0925-1.2126-6.827,5.5435C237.6001,382.6795,254.1375,396.4889,260.7733,404.433z"/>
	<path class="st1" d="M268.2846,400.609c6.5736,7.8452,7.5664,11.9785,7.6284,14.0818c1.0917-0.223,2.1935-0.4333,3.3287-0.5074
		c4.8162-0.3219,9.6387-1.2621,14.4461-1.4597c1.8809-0.0995-6.3165-16.8289-8.9279-19.7863
		c-6.4097-7.2637-29.7717-23.8816-41.0723-30.2417c-6.6351-3.7493-12.095-1.2253-6.8303,5.5435
		C245.1107,378.8555,261.6457,392.6649,268.2846,400.609z"/>
	<path class="st1" d="M277.1099,400.1882c5.1755,7.4246-8.6897,19.8604-8.7975,21.704
		c-14.4125,8.7608,44.7132,84.1186,44.7132,84.1186h62.5133c0,0-48.6018-38.8669-56.4503-49.9913
		c-7.8515-11.1365-24.8502-58.4916-26.9193-61.2881c-5.0703-6.8797-24.2997-23.2632-33.7345-29.7096
		c-5.5347-3.8114-10.5244-2.0172-6.4191,4.343C258.4469,379.3135,271.8977,392.7143,277.1099,400.1882z"/>
</g>
</svg>
